<svg id="SvgjsSvg1228" width="1000" height="603" xmlns="http://www.w3.org/2000/svg" version="1.1" xmlns:xlink="http://www.w3.org/1999/xlink" xmlns:svgjs="http://svgjs.com/svgjs"><defs id="SvgjsDefs1229"></defs><g id="SvgjsG1230" transform="matrix(0.7071067811865476,0.7071067811865475,-0.7071067811865475,0.7071067811865476,602.203759038171,74.14461427998451)"><path id="SvgjsPath1231" d="M 23.08817142989136 0L 46.17634285978272 23.08817142989136L 30.938149716054426 23.08817142989136L 30.938149716054426 138.67661093579488L 15.2381931437283 138.67661093579488L 15.2381931437283 23.08817142989136L 0 23.08817142989136L 23.08817142989136 0Z" stroke="rgba(50,50,50,1)" stroke-width="2" fill-opacity="1" fill="#ffffff"></path><g id="SvgjsG1232"><text id="SvgjsText1233" font-family="微软雅黑" text-anchor="middle" font-size="13px" width="65px" fill="#323232" font-weight="400" align="middle" anchor="middle" family="微软雅黑" size="13px" weight="400" font-style="" opacity="1" y="66.32213601468719" transform="rotate(0)"></text></g></g><g id="SvgjsG1234" transform="matrix(0.7071067811865474,-0.7071067811865477,0.7071067811865477,0.7071067811865474,399.02785731717375,106.79621944653191)"><path id="SvgjsPath1235" d="M 23.08817142989136 0L 46.17634285978272 23.08817142989136L 30.938149716054426 23.08817142989136L 30.938149716054426 138.67661093579488L 15.2381931437283 138.67661093579488L 15.2381931437283 23.08817142989136L 0 23.08817142989136L 23.08817142989136 0Z" stroke="rgba(50,50,50,1)" stroke-width="2" fill-opacity="1" fill="#ffffff"></path><g id="SvgjsG1236"><text id="SvgjsText1237" font-family="微软雅黑" text-anchor="middle" font-size="13px" width="65px" fill="#323232" font-weight="400" align="middle" anchor="middle" family="微软雅黑" size="13px" weight="400" font-style="" opacity="1" y="66.32213601468719" transform="rotate(0)"></text></g></g><g id="SvgjsG1238" transform="translate(25,179)"><path id="SvgjsPath1239" d="M 0 103.5C 0 -34.5 950 -34.5 950 103.5C 950 241.5 0 241.5 0 103.5Z" stroke="rgba(50,50,50,1)" stroke-width="2" fill-opacity="1" fill="#ffffff"></path><g id="SvgjsG1240"><text id="SvgjsText1241" font-family="微软雅黑" text-anchor="middle" font-size="13px" width="930px" fill="#323232" font-weight="400" align="middle" anchor="middle" family="微软雅黑" size="13px" weight="400" font-style="" opacity="1" y="93.55" transform="rotate(0)"></text></g></g><g id="SvgjsG1242" transform="translate(169.5,234)"><path id="SvgjsPath1243" d="M 0 0L 103 0L 103 70L 0 70Z" stroke="rgba(50,50,50,1)" stroke-width="2" fill-opacity="1" fill="#ffffff"></path><g id="SvgjsG1244"><text id="SvgjsText1245" font-family="微软雅黑" text-anchor="middle" font-size="18px" width="83px" fill="#323232" font-weight="700" align="middle" anchor="middle" family="微软雅黑" size="18px" weight="700" font-style="" opacity="1" y="9.3" transform="rotate(0)"><tspan id="SvgjsTspan1246" dy="22" x="51.5"><tspan id="SvgjsTspan1247" style="text-decoration:;">Recieve</tspan></tspan><tspan id="SvgjsTspan1248" dy="22" x="51.5"><tspan id="SvgjsTspan1249" style="text-decoration:;">Image</tspan></tspan></text></g></g><g id="SvgjsG1250" transform="translate(272.49999999999994,234)"><path id="SvgjsPath1251" d="M 0 0L 103 0L 103 70L 0 70Z" stroke="rgba(50,50,50,1)" stroke-width="2" fill-opacity="1" fill="#ffffff"></path><g id="SvgjsG1252"><text id="SvgjsText1253" font-family="微软雅黑" text-anchor="middle" font-size="18px" width="83px" fill="#323232" font-weight="700" align="middle" anchor="middle" family="微软雅黑" size="18px" weight="700" font-style="" opacity="1" y="9.3" transform="rotate(0)"><tspan id="SvgjsTspan1254" dy="22" x="51.5"><tspan id="SvgjsTspan1255" style="text-decoration:;">Calculate</tspan></tspan><tspan id="SvgjsTspan1256" dy="22" x="51.5"><tspan id="SvgjsTspan1257" style="text-decoration:;">Angle</tspan></tspan></text></g></g><g id="SvgjsG1258" transform="translate(169.5,371)"><path id="SvgjsPath1259" d="M 0 0L 100 0L 100 70L 0 70Z" stroke="rgba(50,50,50,1)" stroke-width="2" fill-opacity="1" fill="#ffffff"></path><g id="SvgjsG1260"><text id="SvgjsText1261" font-family="微软雅黑" text-anchor="middle" font-size="18px" width="80px" fill="#323232" font-weight="700" align="middle" anchor="middle" family="微软雅黑" size="18px" weight="700" font-style="" opacity="1" y="9.3" transform="rotate(0)"><tspan id="SvgjsTspan1262" dy="22" x="50"><tspan id="SvgjsTspan1263" style="text-decoration:;">Initialize</tspan></tspan><tspan id="SvgjsTspan1264" dy="22" x="50"><tspan id="SvgjsTspan1265" style="text-decoration:;">Detector</tspan></tspan></text></g></g><g id="SvgjsG1266" transform="translate(269.5,371)"><path id="SvgjsPath1267" d="M 0 0L 600 0L 600 70L 0 70Z" stroke="rgba(50,50,50,1)" stroke-width="2" fill-opacity="1" fill="#ffffff"></path><g id="SvgjsG1268"><text id="SvgjsText1269" font-family="微软雅黑" text-anchor="middle" font-size="20px" width="580px" fill="#323232" font-weight="700" align="middle" anchor="middle" family="微软雅黑" size="20px" weight="700" font-style="" opacity="1" y="19.5" transform="rotate(0)"><tspan id="SvgjsTspan1270" dy="25" x="300"><tspan id="SvgjsTspan1271" style="text-decoration:;">Detecting</tspan></tspan></text></g></g><g id="SvgjsG1272" transform="translate(169.5,508)"><path id="SvgjsPath1273" d="M 0 0L 100 0L 100 70L 0 70Z" stroke="rgba(50,50,50,1)" stroke-width="2" fill-opacity="1" fill="#ffffff"></path><g id="SvgjsG1274"><text id="SvgjsText1275" font-family="微软雅黑" text-anchor="middle" font-size="18px" width="80px" fill="#323232" font-weight="700" align="middle" anchor="middle" family="微软雅黑" size="18px" weight="700" font-style="" opacity="1" y="20.8" transform="rotate(0)"><tspan id="SvgjsTspan1276" dy="22" x="50"><tspan id="SvgjsTspan1277" style="text-decoration:;">Waiting</tspan></tspan></text></g></g><g id="SvgjsG1278" transform="translate(269.5,508)"><path id="SvgjsPath1279" d="M 0 0L 100 0L 100 70L 0 70Z" stroke="rgba(50,50,50,1)" stroke-width="2" fill-opacity="1" fill="#ffffff"></path><g id="SvgjsG1280"><text id="SvgjsText1281" font-family="微软雅黑" text-anchor="middle" font-size="18px" width="80px" fill="#323232" font-weight="700" align="middle" anchor="middle" family="微软雅黑" size="18px" weight="700" font-style="" opacity="1" y="9.3" transform="rotate(0)"><tspan id="SvgjsTspan1282" dy="22" x="50"><tspan id="SvgjsTspan1283" style="text-decoration:;">Initialize</tspan></tspan><tspan id="SvgjsTspan1284" dy="22" x="50"><tspan id="SvgjsTspan1285" style="text-decoration:;">Tracker</tspan></tspan></text></g></g><g id="SvgjsG1286" transform="translate(369.5,508)"><path id="SvgjsPath1287" d="M 0 0L 200 0L 200 70L 0 70Z" stroke="rgba(50,50,50,1)" stroke-width="2" fill-opacity="1" fill="#ffffff"></path><g id="SvgjsG1288"><text id="SvgjsText1289" font-family="微软雅黑" text-anchor="middle" font-size="20px" width="180px" fill="#323232" font-weight="700" align="middle" anchor="middle" family="微软雅黑" size="20px" weight="700" font-style="" opacity="1" y="19.5" transform="rotate(0)"><tspan id="SvgjsTspan1290" dy="25" x="100"><tspan id="SvgjsTspan1291" style="text-decoration:;">Tracking</tspan></tspan></text></g></g><g id="SvgjsG1292" transform="translate(569.5,508)"><path id="SvgjsPath1293" d="M 0 0L 100 0L 100 70L 0 70Z" stroke="rgba(50,50,50,1)" stroke-width="2" fill-opacity="1" fill="#ffffff"></path><g id="SvgjsG1294"><text id="SvgjsText1295" font-family="微软雅黑" text-anchor="middle" font-size="18px" width="80px" fill="#323232" font-weight="700" align="middle" anchor="middle" family="微软雅黑" size="18px" weight="700" font-style="" opacity="1" y="9.3" transform="rotate(0)"><tspan id="SvgjsTspan1296" dy="22" x="50"><tspan id="SvgjsTspan1297" style="text-decoration:;">Initialize</tspan></tspan><tspan id="SvgjsTspan1298" dy="22" x="50"><tspan id="SvgjsTspan1299" style="text-decoration:;">Tracker</tspan></tspan></text></g></g><g id="SvgjsG1300" transform="translate(669.5,508)"><path id="SvgjsPath1301" d="M 0 0L 200 0L 200 70L 0 70Z" stroke="rgba(50,50,50,1)" stroke-width="2" fill-opacity="1" fill="#ffffff"></path><g id="SvgjsG1302"><text id="SvgjsText1303" font-family="微软雅黑" text-anchor="middle" font-size="20px" width="180px" fill="#323232" font-weight="700" align="middle" anchor="middle" family="微软雅黑" size="20px" weight="700" font-style="" opacity="1" y="19.5" transform="rotate(0)"><tspan id="SvgjsTspan1304" dy="25" x="100"><tspan id="SvgjsTspan1305" style="text-decoration:;">Tracking</tspan></tspan></text></g></g><g id="SvgjsG1306" transform="translate(41.5,249)"><path id="SvgjsPath1307" d="M 0 0L 120 0L 120 40L 0 40Z" stroke="none" fill="none"></path><g id="SvgjsG1308"><text id="SvgjsText1309" font-family="微软雅黑" text-anchor="middle" font-size="20px" width="120px" fill="#323232" font-weight="700" align="middle" anchor="middle" family="微软雅黑" size="20px" weight="700" font-style="" opacity="1" y="-8" transform="rotate(0)"><tspan id="SvgjsTspan1310" dy="25" x="60"><tspan id="SvgjsTspan1311" style="text-decoration:;">Main</tspan></tspan><tspan id="SvgjsTspan1312" dy="25" x="60"><tspan id="SvgjsTspan1313" style="text-decoration:;">Tread</tspan></tspan></text></g></g><g id="SvgjsG1314" transform="translate(41.5,386)"><path id="SvgjsPath1315" d="M 0 0L 120 0L 120 40L 0 40Z" stroke="none" fill="none"></path><g id="SvgjsG1316"><text id="SvgjsText1317" font-family="微软雅黑" text-anchor="middle" font-size="20px" width="120px" fill="#323232" font-weight="700" align="middle" anchor="middle" family="微软雅黑" size="20px" weight="700" font-style="" opacity="1" y="-8" transform="rotate(0)"><tspan id="SvgjsTspan1318" dy="25" x="60"><tspan id="SvgjsTspan1319" style="text-decoration:;">Sub</tspan></tspan><tspan id="SvgjsTspan1320" dy="25" x="60"><tspan id="SvgjsTspan1321" style="text-decoration:;">Thread1</tspan></tspan></text></g></g><g id="SvgjsG1322" transform="translate(41.5,523)"><path id="SvgjsPath1323" d="M 0 0L 120 0L 120 40L 0 40Z" stroke="none" fill="none"></path><g id="SvgjsG1324"><text id="SvgjsText1325" font-family="微软雅黑" text-anchor="middle" font-size="20px" width="120px" fill="#323232" font-weight="700" align="middle" anchor="middle" family="微软雅黑" size="20px" weight="700" font-style="" opacity="1" y="-8" transform="rotate(0)"><tspan id="SvgjsTspan1326" dy="25" x="60"><tspan id="SvgjsTspan1327" style="text-decoration:;">Sub</tspan></tspan><tspan id="SvgjsTspan1328" dy="25" x="60"><tspan id="SvgjsTspan1329" style="text-decoration:;">Thread2</tspan></tspan></text></g></g><g id="SvgjsG1330" transform="translate(375.5,234)"><path id="SvgjsPath1331" d="M 0 0L 103 0L 103 70L 0 70Z" stroke="rgba(50,50,50,1)" stroke-width="2" fill-opacity="1" fill="#ffffff"></path><g id="SvgjsG1332"><text id="SvgjsText1333" font-family="微软雅黑" text-anchor="middle" font-size="18px" width="83px" fill="#323232" font-weight="700" align="middle" anchor="middle" family="微软雅黑" size="18px" weight="700" font-style="" opacity="1" y="-2.1999999999999997" transform="rotate(0)"><tspan id="SvgjsTspan1334" dy="22" x="51.5"><tspan id="SvgjsTspan1335" style="text-decoration:;">Publish</tspan></tspan><tspan id="SvgjsTspan1336" dy="22" x="51.5"><tspan id="SvgjsTspan1337" style="text-decoration:;">ROS </tspan></tspan><tspan id="SvgjsTspan1338" dy="22" x="51.5"><tspan id="SvgjsTspan1339" style="text-decoration:;">Message</tspan></tspan></text></g></g><g id="SvgjsG1340" transform="translate(610.5,25)"><path id="SvgjsPath1341" d="M 0 45.5C 0 -15.166666666666666 255 -15.166666666666666 255 45.5C 255 106.16666666666667 0 106.16666666666667 0 45.5Z" stroke="rgba(50,50,50,1)" stroke-width="2" fill-opacity="1" fill="#ffffff"></path><g id="SvgjsG1342"><text id="SvgjsText1343" font-family="微软雅黑" text-anchor="middle" font-size="20px" width="235px" fill="#323232" font-weight="700" align="middle" anchor="middle" family="微软雅黑" size="20px" weight="700" font-style="" opacity="1" y="30" transform="rotate(0)"><tspan id="SvgjsTspan1344" dy="25" x="127.5"><tspan id="SvgjsTspan1345" style="text-decoration:;">Decision_node</tspan></tspan></text></g></g><g id="SvgjsG1346" transform="translate(293.5,441)"><path id="SvgjsPath1347" d="M 17.16 0L 34.84 0L 34.84 41L 52 41L 26 67L 0 41L 17.16 41L 17.16 0Z" stroke="rgba(50,50,50,1)" stroke-width="2" fill-opacity="1" fill="#ffffff"></path><g id="SvgjsG1348"><text id="SvgjsText1349" font-family="微软雅黑" text-anchor="middle" font-size="13px" width="73px" fill="#323232" font-weight="400" align="middle" anchor="middle" family="微软雅黑" size="13px" weight="400" font-style="" opacity="1" y="20.2" transform="rotate(0)"></text></g></g><g id="SvgjsG1350" transform="translate(289.5,304)"><path id="SvgjsPath1351" d="M 30 0L 60 30L 40.2 30L 40.2 67L 19.8 67L 19.8 30L 0 30L 30 0Z" stroke="rgba(50,50,50,1)" stroke-width="2" fill-opacity="1" fill="#ffffff"></path><g id="SvgjsG1352"><text id="SvgjsText1353" font-family="微软雅黑" text-anchor="middle" font-size="13px" width="84px" fill="#323232" font-weight="400" align="middle" anchor="middle" family="微软雅黑" size="13px" weight="400" font-style="" opacity="1" y="26.9" transform="rotate(0)"></text></g></g><g id="SvgjsG1354" transform="translate(332.5,325.5)"><path id="SvgjsPath1355" d="M 0 0L 120 0L 120 40L 0 40Z" stroke="none" fill="none"></path><g id="SvgjsG1356"><text id="SvgjsText1357" font-family="微软雅黑" text-anchor="middle" font-size="15px" width="120px" fill="#323232" font-weight="700" align="middle" anchor="middle" family="微软雅黑" size="15px" weight="700" font-style="" opacity="1" y="-1.25" transform="rotate(0)"><tspan id="SvgjsTspan1358" dy="18" x="60"><tspan id="SvgjsTspan1359" style="text-decoration:;">Bounding</tspan></tspan><tspan id="SvgjsTspan1360" dy="18" x="60"><tspan id="SvgjsTspan1361" style="text-decoration:;">Box</tspan></tspan></text></g></g><g id="SvgjsG1362" transform="translate(325.5,450.5)"><path id="SvgjsPath1363" d="M 0 0L 120 0L 120 40L 0 40Z" stroke="none" fill="none"></path><g id="SvgjsG1364"><text id="SvgjsText1365" font-family="微软雅黑" text-anchor="middle" font-size="15px" width="120px" fill="#323232" font-weight="700" align="middle" anchor="middle" family="微软雅黑" size="15px" weight="700" font-style="" opacity="1" y="-1.25" transform="rotate(0)"><tspan id="SvgjsTspan1366" dy="18" x="60"><tspan id="SvgjsTspan1367" style="text-decoration:;">Bounding</tspan></tspan><tspan id="SvgjsTspan1368" dy="18" x="60"><tspan id="SvgjsTspan1369" style="text-decoration:;">Box</tspan></tspan></text></g></g><g id="SvgjsG1370" transform="translate(560.5,234)"><path id="SvgjsPath1371" d="M 0 0L 103 0L 103 70L 0 70Z" stroke="rgba(50,50,50,1)" stroke-width="2" fill-opacity="1" fill="#ffffff"></path><g id="SvgjsG1372"><text id="SvgjsText1373" font-family="微软雅黑" text-anchor="middle" font-size="18px" width="83px" fill="#323232" font-weight="700" align="middle" anchor="middle" family="微软雅黑" size="18px" weight="700" font-style="" opacity="1" y="9.3" transform="rotate(0)"><tspan id="SvgjsTspan1374" dy="22" x="51.5"><tspan id="SvgjsTspan1375" style="text-decoration:;">Recieve</tspan></tspan><tspan id="SvgjsTspan1376" dy="22" x="51.5"><tspan id="SvgjsTspan1377" style="text-decoration:;">Image</tspan></tspan></text></g></g><g id="SvgjsG1378" transform="translate(663.5,234)"><path id="SvgjsPath1379" d="M 0 0L 103 0L 103 70L 0 70Z" stroke="rgba(50,50,50,1)" stroke-width="2" fill-opacity="1" fill="#ffffff"></path><g id="SvgjsG1380"><text id="SvgjsText1381" font-family="微软雅黑" text-anchor="middle" font-size="18px" width="83px" fill="#323232" font-weight="700" align="middle" anchor="middle" family="微软雅黑" size="18px" weight="700" font-style="" opacity="1" y="9.3" transform="rotate(0)"><tspan id="SvgjsTspan1382" dy="22" x="51.5"><tspan id="SvgjsTspan1383" style="text-decoration:;">Calculate</tspan></tspan><tspan id="SvgjsTspan1384" dy="22" x="51.5"><tspan id="SvgjsTspan1385" style="text-decoration:;">Angle</tspan></tspan></text></g></g><g id="SvgjsG1386" transform="translate(766.5,234)"><path id="SvgjsPath1387" d="M 0 0L 103 0L 103 70L 0 70Z" stroke="rgba(50,50,50,1)" stroke-width="2" fill-opacity="1" fill="#ffffff"></path><g id="SvgjsG1388"><text id="SvgjsText1389" font-family="微软雅黑" text-anchor="middle" font-size="18px" width="83px" fill="#323232" font-weight="700" align="middle" anchor="middle" family="微软雅黑" size="18px" weight="700" font-style="" opacity="1" y="-2.1999999999999997" transform="rotate(0)"><tspan id="SvgjsTspan1390" dy="22" x="51.5"><tspan id="SvgjsTspan1391" style="text-decoration:;">Publish</tspan></tspan><tspan id="SvgjsTspan1392" dy="22" x="51.5"><tspan id="SvgjsTspan1393" style="text-decoration:;">ROS </tspan></tspan><tspan id="SvgjsTspan1394" dy="22" x="51.5"><tspan id="SvgjsTspan1395" style="text-decoration:;">Message</tspan></tspan></text></g></g><g id="SvgjsG1396" transform="translate(365.25,175)"><path id="SvgjsPath1397" d="M 0 0L 248.5 0L 248.5 44L 0 44Z" stroke="none" fill="none"></path><g id="SvgjsG1398"><text id="SvgjsText1399" font-family="微软雅黑" text-anchor="middle" font-size="20px" width="249px" fill="#323232" font-weight="700" align="middle" anchor="middle" family="微软雅黑" size="20px" weight="700" font-style="" opacity="1" y="6.5" transform="rotate(0)"><tspan id="SvgjsTspan1400" dy="25" x="124.5"><tspan id="SvgjsTspan1401" style="text-decoration:;">Armor_Detection_node</tspan></tspan></text></g></g><g id="SvgjsG1402" transform="translate(683.5,304)"><path id="SvgjsPath1403" d="M 30 0L 60 30L 40.2 30L 40.2 67L 19.8 67L 19.8 30L 0 30L 30 0Z" stroke="rgba(50,50,50,1)" stroke-width="2" fill-opacity="1" fill="#ffffff"></path><g id="SvgjsG1404"><text id="SvgjsText1405" font-family="微软雅黑" text-anchor="middle" font-size="13px" width="84px" fill="#323232" font-weight="400" align="middle" anchor="middle" family="微软雅黑" size="13px" weight="400" font-style="" opacity="1" y="26.9" transform="rotate(0)"></text></g></g><g id="SvgjsG1406" transform="translate(726.5,325.5)"><path id="SvgjsPath1407" d="M 0 0L 120 0L 120 40L 0 40Z" stroke="none" fill="none"></path><g id="SvgjsG1408"><text id="SvgjsText1409" font-family="微软雅黑" text-anchor="middle" font-size="15px" width="120px" fill="#323232" font-weight="700" align="middle" anchor="middle" family="微软雅黑" size="15px" weight="700" font-style="" opacity="1" y="-1.25" transform="rotate(0)"><tspan id="SvgjsTspan1410" dy="18" x="60"><tspan id="SvgjsTspan1411" style="text-decoration:;">Bounding</tspan></tspan><tspan id="SvgjsTspan1412" dy="18" x="60"><tspan id="SvgjsTspan1413" style="text-decoration:;">Box</tspan></tspan></text></g></g><g id="SvgjsG1414" transform="translate(596.5,441)"><path id="SvgjsPath1415" d="M 17.16 0L 34.84 0L 34.84 41L 52 41L 26 67L 0 41L 17.16 41L 17.16 0Z" stroke="rgba(50,50,50,1)" stroke-width="2" fill-opacity="1" fill="#ffffff"></path><g id="SvgjsG1416"><text id="SvgjsText1417" font-family="微软雅黑" text-anchor="middle" font-size="13px" width="73px" fill="#323232" font-weight="400" align="middle" anchor="middle" family="微软雅黑" size="13px" weight="400" font-style="" opacity="1" y="20.2" transform="rotate(0)"></text></g></g><g id="SvgjsG1418" transform="translate(628.5,450.5)"><path id="SvgjsPath1419" d="M 0 0L 120 0L 120 40L 0 40Z" stroke="none" fill="none"></path><g id="SvgjsG1420"><text id="SvgjsText1421" font-family="微软雅黑" text-anchor="middle" font-size="15px" width="120px" fill="#323232" font-weight="700" align="middle" anchor="middle" family="微软雅黑" size="15px" weight="700" font-style="" opacity="1" y="-1.25" transform="rotate(0)"><tspan id="SvgjsTspan1422" dy="18" x="60"><tspan id="SvgjsTspan1423" style="text-decoration:;">Bounding</tspan></tspan><tspan id="SvgjsTspan1424" dy="18" x="60"><tspan id="SvgjsTspan1425" style="text-decoration:;">Box</tspan></tspan></text></g></g><g id="SvgjsG1426" transform="translate(332.5,127.5)"><path id="SvgjsPath1427" d="M 0 0L 120 0L 120 40L 0 40Z" stroke="none" fill="none"></path><g id="SvgjsG1428"><text id="SvgjsText1429" font-family="微软雅黑" text-anchor="middle" font-size="15px" width="120px" fill="#323232" font-weight="700" align="middle" anchor="middle" family="微软雅黑" size="15px" weight="700" font-style="" opacity="1" y="8.25" transform="rotate(0)"><tspan id="SvgjsTspan1430" dy="18" x="60"><tspan id="SvgjsTspan1431" style="text-decoration:;">EnemyDirection</tspan></tspan></text></g></g><g id="SvgjsG1432" transform="translate(169.5,25)"><path id="SvgjsPath1433" d="M 0 45.5C 0 -15.166666666666666 255 -15.166666666666666 255 45.5C 255 106.16666666666667 0 106.16666666666667 0 45.5Z" stroke="rgba(50,50,50,1)" stroke-width="2" fill-opacity="1" fill="#ffffff"></path><g id="SvgjsG1434"><text id="SvgjsText1435" font-family="微软雅黑" text-anchor="middle" font-size="20px" width="235px" fill="#323232" font-weight="700" align="middle" anchor="middle" family="微软雅黑" size="20px" weight="700" font-style="" opacity="1" y="30" transform="rotate(0)"><tspan id="SvgjsTspan1436" dy="25" x="127.5"><tspan id="SvgjsTspan1437" style="text-decoration:;">Base_node</tspan></tspan></text></g></g><g id="SvgjsG1438" transform="translate(581.5,127.5)"><path id="SvgjsPath1439" d="M 0 0L 120 0L 120 40L 0 40Z" stroke="none" fill="none"></path><g id="SvgjsG1440"><text id="SvgjsText1441" font-family="微软雅黑" text-anchor="middle" font-size="15px" width="120px" fill="#323232" font-weight="700" align="middle" anchor="middle" family="微软雅黑" size="15px" weight="700" font-style="" opacity="1" y="8.25" transform="rotate(0)"><tspan id="SvgjsTspan1442" dy="18" x="60"><tspan id="SvgjsTspan1443" style="text-decoration:;">GimbalAngle</tspan></tspan></text></g></g><g id="SvgjsG1444" transform="translate(458.5,241)"><path id="SvgjsPath1445" d="M 0 0L 120 0L 120 40L 0 40Z" stroke="none" fill="none"></path><g id="SvgjsG1446"><text id="SvgjsText1447" font-family="微软雅黑" text-anchor="middle" font-size="24px" width="120px" fill="#323232" font-weight="700" align="middle" anchor="middle" family="微软雅黑" size="24px" weight="700" font-style="" opacity="1" y="-0.5999999999999996" transform="rotate(0)"><tspan id="SvgjsTspan1448" dy="30" x="60"><tspan id="SvgjsTspan1449" style="text-decoration:;">……</tspan></tspan></text></g></g><g id="SvgjsG1450" transform="translate(478.5,304)"><path id="SvgjsPath1451" d="M 26.5 0L 53 26.5L 35.510000000000005 26.5L 35.510000000000005 204L 17.490000000000002 204L 17.490000000000002 26.5L 0 26.5L 26.5 0Z" stroke="rgba(50,50,50,1)" stroke-width="2" fill-opacity="1" fill="#ffffff"></path><g id="SvgjsG1452"><text id="SvgjsText1453" font-family="微软雅黑" text-anchor="middle" font-size="13px" width="75px" fill="#323232" font-weight="400" align="middle" anchor="middle" family="微软雅黑" size="13px" weight="400" font-style="" opacity="1" y="102.25" transform="rotate(0)"></text></g></g><g id="SvgjsG1454" transform="translate(518.5,325.5)"><path id="SvgjsPath1455" d="M 0 0L 120 0L 120 40L 0 40Z" stroke="none" fill="none"></path><g id="SvgjsG1456"><text id="SvgjsText1457" font-family="微软雅黑" text-anchor="middle" font-size="15px" width="120px" fill="#323232" font-weight="700" align="middle" anchor="middle" family="微软雅黑" size="15px" weight="700" font-style="" opacity="1" y="-1.25" transform="rotate(0)"><tspan id="SvgjsTspan1458" dy="18" x="60"><tspan id="SvgjsTspan1459" style="text-decoration:;">Bounding</tspan></tspan><tspan id="SvgjsTspan1460" dy="18" x="60"><tspan id="SvgjsTspan1461" style="text-decoration:;">Box</tspan></tspan></text></g></g></svg>