<svg id="SvgjsSvg1006" width="1000" height="603" xmlns="http://www.w3.org/2000/svg" version="1.1" xmlns:xlink="http://www.w3.org/1999/xlink" xmlns:svgjs="http://svgjs.com/svgjs"><defs id="SvgjsDefs1007"></defs><g id="SvgjsG1008" transform="translate(131.99999999999994,102.75)"><path id="SvgjsPath1009" d="M 15.84 0L 32.160000000000004 0L 32.160000000000004 80.5L 48 80.5L 24 104.5L 0 80.5L 15.84 80.5L 15.84 0Z" stroke="rgba(50,50,50,1)" stroke-width="2" fill-opacity="1" fill="#ffffff"></path><g id="SvgjsG1010"><text id="SvgjsText1011" font-family="微软雅黑" text-anchor="middle" font-size="13px" width="68px" fill="#323232" font-weight="400" align="middle" anchor="middle" family="微软雅黑" size="13px" weight="400" font-style="" opacity="1" y="37.074999999999996" transform="rotate(0)"></text></g></g><g id="SvgjsG1012" transform="translate(794.9118285701086,116)"><path id="SvgjsPath1013" d="M 23.08817142989136 0L 46.17634285978272 23.08817142989136L 30.938149716054426 23.08817142989136L 30.938149716054426 138.67661093579488L 15.2381931437283 138.67661093579488L 15.2381931437283 23.08817142989136L 0 23.08817142989136L 23.08817142989136 0Z" stroke="rgba(50,50,50,1)" stroke-width="2" fill-opacity="1" fill="#ffffff"></path><g id="SvgjsG1014"><text id="SvgjsText1015" font-family="微软雅黑" text-anchor="middle" font-size="13px" width="65px" fill="#323232" font-weight="400" align="middle" anchor="middle" family="微软雅黑" size="13px" weight="400" font-style="" opacity="1" y="66.32213601468719" transform="rotate(0)"></text></g></g><g id="SvgjsG1016" transform="translate(476.9118285701086,116)"><path id="SvgjsPath1017" d="M 23.08817142989136 0L 46.17634285978272 23.08817142989136L 30.938149716054426 23.08817142989136L 30.938149716054426 138.67661093579488L 15.2381931437283 138.67661093579488L 15.2381931437283 23.08817142989136L 0 23.08817142989136L 23.08817142989136 0Z" stroke="rgba(50,50,50,1)" stroke-width="2" fill-opacity="1" fill="#ffffff"></path><g id="SvgjsG1018"><text id="SvgjsText1019" font-family="微软雅黑" text-anchor="middle" font-size="13px" width="65px" fill="#323232" font-weight="400" align="middle" anchor="middle" family="微软雅黑" size="13px" weight="400" font-style="" opacity="1" y="66.32213601468719" transform="rotate(0)"></text></g></g><g id="SvgjsG1020" transform="translate(25,179)"><path id="SvgjsPath1021" d="M 0 103.5C 0 -34.5 950 -34.5 950 103.5C 950 241.5 0 241.5 0 103.5Z" stroke="rgba(50,50,50,1)" stroke-width="2" fill-opacity="1" fill="#ffffff"></path><g id="SvgjsG1022"><text id="SvgjsText1023" font-family="微软雅黑" text-anchor="middle" font-size="13px" width="930px" fill="#323232" font-weight="400" align="middle" anchor="middle" family="微软雅黑" size="13px" weight="400" font-style="" opacity="1" y="93.55" transform="rotate(0)"></text></g></g><g id="SvgjsG1024" transform="translate(169.5,234)"><path id="SvgjsPath1025" d="M 0 0L 103 0L 103 70L 0 70Z" stroke="rgba(50,50,50,1)" stroke-width="2" fill-opacity="1" fill="#ffffff"></path><g id="SvgjsG1026"><text id="SvgjsText1027" font-family="微软雅黑" text-anchor="middle" font-size="18px" width="83px" fill="#323232" font-weight="700" align="middle" anchor="middle" family="微软雅黑" size="18px" weight="700" font-style="" opacity="1" y="9.3" transform="rotate(0)"><tspan id="SvgjsTspan1028" dy="22" x="51.5"><tspan id="SvgjsTspan1029" style="text-decoration:;">Recieve</tspan></tspan><tspan id="SvgjsTspan1030" dy="22" x="51.5"><tspan id="SvgjsTspan1031" style="text-decoration:;">Image</tspan></tspan></text></g></g><g id="SvgjsG1032" transform="translate(272.49999999999994,234)"><path id="SvgjsPath1033" d="M 0 0L 103 0L 103 70L 0 70Z" stroke="rgba(50,50,50,1)" stroke-width="2" fill-opacity="1" fill="#ffffff"></path><g id="SvgjsG1034"><text id="SvgjsText1035" font-family="微软雅黑" text-anchor="middle" font-size="18px" width="83px" fill="#323232" font-weight="700" align="middle" anchor="middle" family="微软雅黑" size="18px" weight="700" font-style="" opacity="1" y="9.3" transform="rotate(0)"><tspan id="SvgjsTspan1036" dy="22" x="51.5"><tspan id="SvgjsTspan1037" style="text-decoration:;">Calculate</tspan></tspan><tspan id="SvgjsTspan1038" dy="22" x="51.5"><tspan id="SvgjsTspan1039" style="text-decoration:;">Angle</tspan></tspan></text></g></g><g id="SvgjsG1040" transform="translate(169.5,371)"><path id="SvgjsPath1041" d="M 0 0L 100 0L 100 70L 0 70Z" stroke="rgba(50,50,50,1)" stroke-width="2" fill-opacity="1" fill="#ffffff"></path><g id="SvgjsG1042"><text id="SvgjsText1043" font-family="微软雅黑" text-anchor="middle" font-size="18px" width="80px" fill="#323232" font-weight="700" align="middle" anchor="middle" family="微软雅黑" size="18px" weight="700" font-style="" opacity="1" y="9.3" transform="rotate(0)"><tspan id="SvgjsTspan1044" dy="22" x="50"><tspan id="SvgjsTspan1045" style="text-decoration:;">Initialize</tspan></tspan><tspan id="SvgjsTspan1046" dy="22" x="50"><tspan id="SvgjsTspan1047" style="text-decoration:;">Detector</tspan></tspan></text></g></g><g id="SvgjsG1048" transform="translate(269.5,371)"><path id="SvgjsPath1049" d="M 0 0L 600 0L 600 70L 0 70Z" stroke="rgba(50,50,50,1)" stroke-width="2" fill-opacity="1" fill="#ffffff"></path><g id="SvgjsG1050"><text id="SvgjsText1051" font-family="微软雅黑" text-anchor="middle" font-size="20px" width="580px" fill="#323232" font-weight="700" align="middle" anchor="middle" family="微软雅黑" size="20px" weight="700" font-style="" opacity="1" y="19.5" transform="rotate(0)"><tspan id="SvgjsTspan1052" dy="25" x="300"><tspan id="SvgjsTspan1053" style="text-decoration:;">Detecting</tspan></tspan></text></g></g><g id="SvgjsG1054" transform="translate(169.5,508)"><path id="SvgjsPath1055" d="M 0 0L 100 0L 100 70L 0 70Z" stroke="rgba(50,50,50,1)" stroke-width="2" fill-opacity="1" fill="#ffffff"></path><g id="SvgjsG1056"><text id="SvgjsText1057" font-family="微软雅黑" text-anchor="middle" font-size="18px" width="80px" fill="#323232" font-weight="700" align="middle" anchor="middle" family="微软雅黑" size="18px" weight="700" font-style="" opacity="1" y="20.8" transform="rotate(0)"><tspan id="SvgjsTspan1058" dy="22" x="50"><tspan id="SvgjsTspan1059" style="text-decoration:;">Waiting</tspan></tspan></text></g></g><g id="SvgjsG1060" transform="translate(269.5,508)"><path id="SvgjsPath1061" d="M 0 0L 100 0L 100 70L 0 70Z" stroke="rgba(50,50,50,1)" stroke-width="2" fill-opacity="1" fill="#ffffff"></path><g id="SvgjsG1062"><text id="SvgjsText1063" font-family="微软雅黑" text-anchor="middle" font-size="18px" width="80px" fill="#323232" font-weight="700" align="middle" anchor="middle" family="微软雅黑" size="18px" weight="700" font-style="" opacity="1" y="9.3" transform="rotate(0)"><tspan id="SvgjsTspan1064" dy="22" x="50"><tspan id="SvgjsTspan1065" style="text-decoration:;">Initialize</tspan></tspan><tspan id="SvgjsTspan1066" dy="22" x="50"><tspan id="SvgjsTspan1067" style="text-decoration:;">Tracker</tspan></tspan></text></g></g><g id="SvgjsG1068" transform="translate(369.5,508)"><path id="SvgjsPath1069" d="M 0 0L 200 0L 200 70L 0 70Z" stroke="rgba(50,50,50,1)" stroke-width="2" fill-opacity="1" fill="#ffffff"></path><g id="SvgjsG1070"><text id="SvgjsText1071" font-family="微软雅黑" text-anchor="middle" font-size="20px" width="180px" fill="#323232" font-weight="700" align="middle" anchor="middle" family="微软雅黑" size="20px" weight="700" font-style="" opacity="1" y="19.5" transform="rotate(0)"><tspan id="SvgjsTspan1072" dy="25" x="100"><tspan id="SvgjsTspan1073" style="text-decoration:;">Tracking</tspan></tspan></text></g></g><g id="SvgjsG1074" transform="translate(569.5,508)"><path id="SvgjsPath1075" d="M 0 0L 100 0L 100 70L 0 70Z" stroke="rgba(50,50,50,1)" stroke-width="2" fill-opacity="1" fill="#ffffff"></path><g id="SvgjsG1076"><text id="SvgjsText1077" font-family="微软雅黑" text-anchor="middle" font-size="18px" width="80px" fill="#323232" font-weight="700" align="middle" anchor="middle" family="微软雅黑" size="18px" weight="700" font-style="" opacity="1" y="9.3" transform="rotate(0)"><tspan id="SvgjsTspan1078" dy="22" x="50"><tspan id="SvgjsTspan1079" style="text-decoration:;">Initialize</tspan></tspan><tspan id="SvgjsTspan1080" dy="22" x="50"><tspan id="SvgjsTspan1081" style="text-decoration:;">Tracker</tspan></tspan></text></g></g><g id="SvgjsG1082" transform="translate(669.5,508)"><path id="SvgjsPath1083" d="M 0 0L 200 0L 200 70L 0 70Z" stroke="rgba(50,50,50,1)" stroke-width="2" fill-opacity="1" fill="#ffffff"></path><g id="SvgjsG1084"><text id="SvgjsText1085" font-family="微软雅黑" text-anchor="middle" font-size="20px" width="180px" fill="#323232" font-weight="700" align="middle" anchor="middle" family="微软雅黑" size="20px" weight="700" font-style="" opacity="1" y="19.5" transform="rotate(0)"><tspan id="SvgjsTspan1086" dy="25" x="100"><tspan id="SvgjsTspan1087" style="text-decoration:;">Tracking</tspan></tspan></text></g></g><g id="SvgjsG1088" transform="translate(41.5,249)"><path id="SvgjsPath1089" d="M 0 0L 120 0L 120 40L 0 40Z" stroke="none" fill="none"></path><g id="SvgjsG1090"><text id="SvgjsText1091" font-family="微软雅黑" text-anchor="middle" font-size="20px" width="120px" fill="#323232" font-weight="700" align="middle" anchor="middle" family="微软雅黑" size="20px" weight="700" font-style="" opacity="1" y="-8" transform="rotate(0)"><tspan id="SvgjsTspan1092" dy="25" x="60"><tspan id="SvgjsTspan1093" style="text-decoration:;">Main</tspan></tspan><tspan id="SvgjsTspan1094" dy="25" x="60"><tspan id="SvgjsTspan1095" style="text-decoration:;">Tread</tspan></tspan></text></g></g><g id="SvgjsG1096" transform="translate(41.5,386)"><path id="SvgjsPath1097" d="M 0 0L 120 0L 120 40L 0 40Z" stroke="none" fill="none"></path><g id="SvgjsG1098"><text id="SvgjsText1099" font-family="微软雅黑" text-anchor="middle" font-size="20px" width="120px" fill="#323232" font-weight="700" align="middle" anchor="middle" family="微软雅黑" size="20px" weight="700" font-style="" opacity="1" y="-8" transform="rotate(0)"><tspan id="SvgjsTspan1100" dy="25" x="60"><tspan id="SvgjsTspan1101" style="text-decoration:;">Sub</tspan></tspan><tspan id="SvgjsTspan1102" dy="25" x="60"><tspan id="SvgjsTspan1103" style="text-decoration:;">Thread1</tspan></tspan></text></g></g><g id="SvgjsG1104" transform="translate(41.5,523)"><path id="SvgjsPath1105" d="M 0 0L 120 0L 120 40L 0 40Z" stroke="none" fill="none"></path><g id="SvgjsG1106"><text id="SvgjsText1107" font-family="微软雅黑" text-anchor="middle" font-size="20px" width="120px" fill="#323232" font-weight="700" align="middle" anchor="middle" family="微软雅黑" size="20px" weight="700" font-style="" opacity="1" y="-8" transform="rotate(0)"><tspan id="SvgjsTspan1108" dy="25" x="60"><tspan id="SvgjsTspan1109" style="text-decoration:;">Sub</tspan></tspan><tspan id="SvgjsTspan1110" dy="25" x="60"><tspan id="SvgjsTspan1111" style="text-decoration:;">Thread2</tspan></tspan></text></g></g><g id="SvgjsG1112" transform="translate(375.5,234)"><path id="SvgjsPath1113" d="M 0 0L 103 0L 103 70L 0 70Z" stroke="rgba(50,50,50,1)" stroke-width="2" fill-opacity="1" fill="#ffffff"></path><g id="SvgjsG1114"><text id="SvgjsText1115" font-family="微软雅黑" text-anchor="middle" font-size="18px" width="83px" fill="#323232" font-weight="700" align="middle" anchor="middle" family="微软雅黑" size="18px" weight="700" font-style="" opacity="1" y="-2.1999999999999997" transform="rotate(0)"><tspan id="SvgjsTspan1116" dy="22" x="51.5"><tspan id="SvgjsTspan1117" style="text-decoration:;">Publish</tspan></tspan><tspan id="SvgjsTspan1118" dy="22" x="51.5"><tspan id="SvgjsTspan1119" style="text-decoration:;">ROS </tspan></tspan><tspan id="SvgjsTspan1120" dy="22" x="51.5"><tspan id="SvgjsTspan1121" style="text-decoration:;">Message</tspan></tspan></text></g></g><g id="SvgjsG1122" transform="translate(696.5,25)"><path id="SvgjsPath1123" d="M 0 45.5C 0 -15.166666666666666 255 -15.166666666666666 255 45.5C 255 106.16666666666667 0 106.16666666666667 0 45.5Z" stroke="rgba(50,50,50,1)" stroke-width="2" fill-opacity="1" fill="#ffffff"></path><g id="SvgjsG1124"><text id="SvgjsText1125" font-family="微软雅黑" text-anchor="middle" font-size="20px" width="235px" fill="#323232" font-weight="700" align="middle" anchor="middle" family="微软雅黑" size="20px" weight="700" font-style="" opacity="1" y="30" transform="rotate(0)"><tspan id="SvgjsTspan1126" dy="25" x="127.5"><tspan id="SvgjsTspan1127" style="text-decoration:;">decision_node</tspan></tspan></text></g></g><g id="SvgjsG1128" transform="translate(293.5,441)"><path id="SvgjsPath1129" d="M 17.16 0L 34.84 0L 34.84 41L 52 41L 26 67L 0 41L 17.16 41L 17.16 0Z" stroke="rgba(50,50,50,1)" stroke-width="2" fill-opacity="1" fill="#ffffff"></path><g id="SvgjsG1130"><text id="SvgjsText1131" font-family="微软雅黑" text-anchor="middle" font-size="13px" width="73px" fill="#323232" font-weight="400" align="middle" anchor="middle" family="微软雅黑" size="13px" weight="400" font-style="" opacity="1" y="20.2" transform="rotate(0)"></text></g></g><g id="SvgjsG1132" transform="translate(289.5,304)"><path id="SvgjsPath1133" d="M 30 0L 60 30L 40.2 30L 40.2 67L 19.8 67L 19.8 30L 0 30L 30 0Z" stroke="rgba(50,50,50,1)" stroke-width="2" fill-opacity="1" fill="#ffffff"></path><g id="SvgjsG1134"><text id="SvgjsText1135" font-family="微软雅黑" text-anchor="middle" font-size="13px" width="84px" fill="#323232" font-weight="400" align="middle" anchor="middle" family="微软雅黑" size="13px" weight="400" font-style="" opacity="1" y="26.9" transform="rotate(0)"></text></g></g><g id="SvgjsG1136" transform="translate(332.5,325.5)"><path id="SvgjsPath1137" d="M 0 0L 120 0L 120 40L 0 40Z" stroke="none" fill="none"></path><g id="SvgjsG1138"><text id="SvgjsText1139" font-family="微软雅黑" text-anchor="middle" font-size="15px" width="120px" fill="#323232" font-weight="700" align="middle" anchor="middle" family="微软雅黑" size="15px" weight="700" font-style="" opacity="1" y="-1.25" transform="rotate(0)"><tspan id="SvgjsTspan1140" dy="18" x="60"><tspan id="SvgjsTspan1141" style="text-decoration:;">Bounding</tspan></tspan><tspan id="SvgjsTspan1142" dy="18" x="60"><tspan id="SvgjsTspan1143" style="text-decoration:;">Box</tspan></tspan></text></g></g><g id="SvgjsG1144" transform="translate(325.5,450.5)"><path id="SvgjsPath1145" d="M 0 0L 120 0L 120 40L 0 40Z" stroke="none" fill="none"></path><g id="SvgjsG1146"><text id="SvgjsText1147" font-family="微软雅黑" text-anchor="middle" font-size="15px" width="120px" fill="#323232" font-weight="700" align="middle" anchor="middle" family="微软雅黑" size="15px" weight="700" font-style="" opacity="1" y="-1.25" transform="rotate(0)"><tspan id="SvgjsTspan1148" dy="18" x="60"><tspan id="SvgjsTspan1149" style="text-decoration:;">Bounding</tspan></tspan><tspan id="SvgjsTspan1150" dy="18" x="60"><tspan id="SvgjsTspan1151" style="text-decoration:;">Box</tspan></tspan></text></g></g><g id="SvgjsG1152" transform="translate(560.5,234)"><path id="SvgjsPath1153" d="M 0 0L 103 0L 103 70L 0 70Z" stroke="rgba(50,50,50,1)" stroke-width="2" fill-opacity="1" fill="#ffffff"></path><g id="SvgjsG1154"><text id="SvgjsText1155" font-family="微软雅黑" text-anchor="middle" font-size="18px" width="83px" fill="#323232" font-weight="700" align="middle" anchor="middle" family="微软雅黑" size="18px" weight="700" font-style="" opacity="1" y="9.3" transform="rotate(0)"><tspan id="SvgjsTspan1156" dy="22" x="51.5"><tspan id="SvgjsTspan1157" style="text-decoration:;">Recieve</tspan></tspan><tspan id="SvgjsTspan1158" dy="22" x="51.5"><tspan id="SvgjsTspan1159" style="text-decoration:;">Image</tspan></tspan></text></g></g><g id="SvgjsG1160" transform="translate(663.5,234)"><path id="SvgjsPath1161" d="M 0 0L 103 0L 103 70L 0 70Z" stroke="rgba(50,50,50,1)" stroke-width="2" fill-opacity="1" fill="#ffffff"></path><g id="SvgjsG1162"><text id="SvgjsText1163" font-family="微软雅黑" text-anchor="middle" font-size="18px" width="83px" fill="#323232" font-weight="700" align="middle" anchor="middle" family="微软雅黑" size="18px" weight="700" font-style="" opacity="1" y="9.3" transform="rotate(0)"><tspan id="SvgjsTspan1164" dy="22" x="51.5"><tspan id="SvgjsTspan1165" style="text-decoration:;">Calculate</tspan></tspan><tspan id="SvgjsTspan1166" dy="22" x="51.5"><tspan id="SvgjsTspan1167" style="text-decoration:;">Angle</tspan></tspan></text></g></g><g id="SvgjsG1168" transform="translate(766.5,234)"><path id="SvgjsPath1169" d="M 0 0L 103 0L 103 70L 0 70Z" stroke="rgba(50,50,50,1)" stroke-width="2" fill-opacity="1" fill="#ffffff"></path><g id="SvgjsG1170"><text id="SvgjsText1171" font-family="微软雅黑" text-anchor="middle" font-size="18px" width="83px" fill="#323232" font-weight="700" align="middle" anchor="middle" family="微软雅黑" size="18px" weight="700" font-style="" opacity="1" y="-2.1999999999999997" transform="rotate(0)"><tspan id="SvgjsTspan1172" dy="22" x="51.5"><tspan id="SvgjsTspan1173" style="text-decoration:;">Publish</tspan></tspan><tspan id="SvgjsTspan1174" dy="22" x="51.5"><tspan id="SvgjsTspan1175" style="text-decoration:;">ROS </tspan></tspan><tspan id="SvgjsTspan1176" dy="22" x="51.5"><tspan id="SvgjsTspan1177" style="text-decoration:;">Message</tspan></tspan></text></g></g><g id="SvgjsG1178" transform="translate(365.25,175)"><path id="SvgjsPath1179" d="M 0 0L 248.5 0L 248.5 44L 0 44Z" stroke="none" fill="none"></path><g id="SvgjsG1180"><text id="SvgjsText1181" font-family="微软雅黑" text-anchor="middle" font-size="20px" width="249px" fill="#323232" font-weight="700" align="middle" anchor="middle" family="微软雅黑" size="20px" weight="700" font-style="" opacity="1" y="6.5" transform="rotate(0)"><tspan id="SvgjsTspan1182" dy="25" x="124.5"><tspan id="SvgjsTspan1183" style="text-decoration:;">armor_detection_node</tspan></tspan></text></g></g><g id="SvgjsG1184" transform="translate(683.5,304)"><path id="SvgjsPath1185" d="M 30 0L 60 30L 40.2 30L 40.2 67L 19.8 67L 19.8 30L 0 30L 30 0Z" stroke="rgba(50,50,50,1)" stroke-width="2" fill-opacity="1" fill="#ffffff"></path><g id="SvgjsG1186"><text id="SvgjsText1187" font-family="微软雅黑" text-anchor="middle" font-size="13px" width="84px" fill="#323232" font-weight="400" align="middle" anchor="middle" family="微软雅黑" size="13px" weight="400" font-style="" opacity="1" y="26.9" transform="rotate(0)"></text></g></g><g id="SvgjsG1188" transform="translate(726.5,325.5)"><path id="SvgjsPath1189" d="M 0 0L 120 0L 120 40L 0 40Z" stroke="none" fill="none"></path><g id="SvgjsG1190"><text id="SvgjsText1191" font-family="微软雅黑" text-anchor="middle" font-size="15px" width="120px" fill="#323232" font-weight="700" align="middle" anchor="middle" family="微软雅黑" size="15px" weight="700" font-style="" opacity="1" y="-1.25" transform="rotate(0)"><tspan id="SvgjsTspan1192" dy="18" x="60"><tspan id="SvgjsTspan1193" style="text-decoration:;">Bounding</tspan></tspan><tspan id="SvgjsTspan1194" dy="18" x="60"><tspan id="SvgjsTspan1195" style="text-decoration:;">Box</tspan></tspan></text></g></g><g id="SvgjsG1196" transform="translate(596.5,441)"><path id="SvgjsPath1197" d="M 17.16 0L 34.84 0L 34.84 41L 52 41L 26 67L 0 41L 17.16 41L 17.16 0Z" stroke="rgba(50,50,50,1)" stroke-width="2" fill-opacity="1" fill="#ffffff"></path><g id="SvgjsG1198"><text id="SvgjsText1199" font-family="微软雅黑" text-anchor="middle" font-size="13px" width="73px" fill="#323232" font-weight="400" align="middle" anchor="middle" family="微软雅黑" size="13px" weight="400" font-style="" opacity="1" y="20.2" transform="rotate(0)"></text></g></g><g id="SvgjsG1200" transform="translate(628.5,450.5)"><path id="SvgjsPath1201" d="M 0 0L 120 0L 120 40L 0 40Z" stroke="none" fill="none"></path><g id="SvgjsG1202"><text id="SvgjsText1203" font-family="微软雅黑" text-anchor="middle" font-size="15px" width="120px" fill="#323232" font-weight="700" align="middle" anchor="middle" family="微软雅黑" size="15px" weight="700" font-style="" opacity="1" y="-1.25" transform="rotate(0)"><tspan id="SvgjsTspan1204" dy="18" x="60"><tspan id="SvgjsTspan1205" style="text-decoration:;">Bounding</tspan></tspan><tspan id="SvgjsTspan1206" dy="18" x="60"><tspan id="SvgjsTspan1207" style="text-decoration:;">Box</tspan></tspan></text></g></g><g id="SvgjsG1208" transform="translate(831.5,141.5)"><path id="SvgjsPath1209" d="M 0 0L 120 0L 120 40L 0 40Z" stroke="none" fill="none"></path><g id="SvgjsG1210"><text id="SvgjsText1211" font-family="微软雅黑" text-anchor="middle" font-size="15px" width="120px" fill="#323232" font-weight="700" align="middle" anchor="middle" family="微软雅黑" size="15px" weight="700" font-style="" opacity="1" y="8.25" transform="rotate(0)"><tspan id="SvgjsTspan1212" dy="18" x="60"><tspan id="SvgjsTspan1213" style="text-decoration:;">EnemyDirection</tspan></tspan></text></g></g><g id="SvgjsG1214" transform="translate(369.5,25)"><path id="SvgjsPath1215" d="M 0 45.5C 0 -15.166666666666666 255 -15.166666666666666 255 45.5C 255 106.16666666666667 0 106.16666666666667 0 45.5Z" stroke="rgba(50,50,50,1)" stroke-width="2" fill-opacity="1" fill="#ffffff"></path><g id="SvgjsG1216"><text id="SvgjsText1217" font-family="微软雅黑" text-anchor="middle" font-size="20px" width="235px" fill="#323232" font-weight="700" align="middle" anchor="middle" family="微软雅黑" size="20px" weight="700" font-style="" opacity="1" y="30" transform="rotate(0)"><tspan id="SvgjsTspan1218" dy="25" x="127.5"><tspan id="SvgjsTspan1219" style="text-decoration:;">base_node</tspan></tspan></text></g></g><g id="SvgjsG1220" transform="translate(512.5,135)"><path id="SvgjsPath1221" d="M 0 0L 120 0L 120 40L 0 40Z" stroke="none" fill="none"></path><g id="SvgjsG1222"><text id="SvgjsText1223" font-family="微软雅黑" text-anchor="middle" font-size="15px" width="120px" fill="#323232" font-weight="700" align="middle" anchor="middle" family="微软雅黑" size="15px" weight="700" font-style="" opacity="1" y="8.25" transform="rotate(0)"><tspan id="SvgjsTspan1224" dy="18" x="60"><tspan id="SvgjsTspan1225" style="text-decoration:;">GimbalAngle</tspan></tspan></text></g></g><g id="SvgjsG1226" transform="translate(458.5,241)"><path id="SvgjsPath1227" d="M 0 0L 120 0L 120 40L 0 40Z" stroke="none" fill="none"></path><g id="SvgjsG1228"><text id="SvgjsText1229" font-family="微软雅黑" text-anchor="middle" font-size="24px" width="120px" fill="#323232" font-weight="700" align="middle" anchor="middle" family="微软雅黑" size="24px" weight="700" font-style="" opacity="1" y="-0.5999999999999996" transform="rotate(0)"><tspan id="SvgjsTspan1230" dy="30" x="60"><tspan id="SvgjsTspan1231" style="text-decoration:;">……</tspan></tspan></text></g></g><g id="SvgjsG1232" transform="translate(478.5,304)"><path id="SvgjsPath1233" d="M 26.5 0L 53 26.5L 35.510000000000005 26.5L 35.510000000000005 204L 17.490000000000002 204L 17.490000000000002 26.5L 0 26.5L 26.5 0Z" stroke="rgba(50,50,50,1)" stroke-width="2" fill-opacity="1" fill="#ffffff"></path><g id="SvgjsG1234"><text id="SvgjsText1235" font-family="微软雅黑" text-anchor="middle" font-size="13px" width="75px" fill="#323232" font-weight="400" align="middle" anchor="middle" family="微软雅黑" size="13px" weight="400" font-style="" opacity="1" y="102.25" transform="rotate(0)"></text></g></g><g id="SvgjsG1236" transform="translate(518.5,325.5)"><path id="SvgjsPath1237" d="M 0 0L 120 0L 120 40L 0 40Z" stroke="none" fill="none"></path><g id="SvgjsG1238"><text id="SvgjsText1239" font-family="微软雅黑" text-anchor="middle" font-size="15px" width="120px" fill="#323232" font-weight="700" align="middle" anchor="middle" family="微软雅黑" size="15px" weight="700" font-style="" opacity="1" y="-1.25" transform="rotate(0)"><tspan id="SvgjsTspan1240" dy="18" x="60"><tspan id="SvgjsTspan1241" style="text-decoration:;">Bounding</tspan></tspan><tspan id="SvgjsTspan1242" dy="18" x="60"><tspan id="SvgjsTspan1243" style="text-decoration:;">Box</tspan></tspan></text></g></g><g id="SvgjsG1244" transform="translate(28.499999999999943,25)"><path id="SvgjsPath1245" d="M 0 45.5C 0 -15.166666666666666 255 -15.166666666666666 255 45.5C 255 106.16666666666667 0 106.16666666666667 0 45.5Z" stroke="rgba(50,50,50,1)" stroke-width="2" fill-opacity="1" fill="#ffffff"></path><g id="SvgjsG1246"><text id="SvgjsText1247" font-family="微软雅黑" text-anchor="middle" font-size="20px" width="235px" fill="#323232" font-weight="700" align="middle" anchor="middle" family="微软雅黑" size="20px" weight="700" font-style="" opacity="1" y="30" transform="rotate(0)"><tspan id="SvgjsTspan1248" dy="25" x="127.5"><tspan id="SvgjsTspan1249" style="text-decoration:;">camera_node</tspan></tspan></text></g></g><g id="SvgjsG1250" transform="translate(142.5,135)"><path id="SvgjsPath1251" d="M 0 0L 120 0L 120 40L 0 40Z" stroke="none" fill="none"></path><g id="SvgjsG1252"><text id="SvgjsText1253" font-family="微软雅黑" text-anchor="middle" font-size="15px" width="120px" fill="#323232" font-weight="700" align="middle" anchor="middle" family="微软雅黑" size="15px" weight="700" font-style="" opacity="1" y="8.25" transform="rotate(0)"><tspan id="SvgjsTspan1254" dy="18" x="60"><tspan id="SvgjsTspan1255" style="text-decoration:;">Image</tspan></tspan></text></g></g></svg>